<svg xmlns="http://www.w3.org/2000/svg" viewBox="0 0 460 200" fill="none">
  <!-- soft audience bubbles -->
  <circle cx="372" cy="92" r="66" fill="#F97316" opacity="0.14"/>
  <circle cx="312" cy="146" r="40" fill="#FB923C" opacity="0.18"/>
  <circle cx="410" cy="150" r="26" fill="#2B3A4E" opacity="0.07"/>
  <!-- mini insight cards -->
  <rect x="34" y="44" width="128" height="36" rx="9" fill="#FFFFFF" stroke="#E7EBF1"/>
  <rect x="46" y="55" width="14" height="14" rx="3.5" fill="#F97316"/>
  <rect x="68" y="56" width="70" height="5" rx="2.5" fill="#CBD5E1"/>
  <rect x="68" y="67" width="44" height="5" rx="2.5" fill="#E7EBF1"/>
  <rect x="58" y="96" width="150" height="42" rx="10" fill="#FFFFFF" stroke="#E7EBF1"/>
  <circle cx="80" cy="117" r="9" fill="#0EA5E9" opacity="0.75"/>
  <rect x="98" y="108" width="92" height="5" rx="2.5" fill="#CBD5E1"/>
  <rect x="98" y="120" width="60" height="5" rx="2.5" fill="#E7EBF1"/>
  <!-- trend line -->
  <path d="M212 142 Q252 104 292 124 T372 90" stroke="#F97316" stroke-width="3" fill="none" stroke-linecap="round"/>
  <circle cx="372" cy="90" r="5.5" fill="#F97316"/>
  <!-- dotted grid -->
  <g fill="#CBD5E1">
    <circle cx="250" cy="52" r="2.2"/><circle cx="270" cy="52" r="2.2"/><circle cx="290" cy="52" r="2.2"/>
    <circle cx="250" cy="70" r="2.2"/><circle cx="270" cy="70" r="2.2"/><circle cx="290" cy="70" r="2.2"/>
    <circle cx="250" cy="88" r="2.2"/><circle cx="270" cy="88" r="2.2"/><circle cx="290" cy="88" r="2.2"/>
  </g>
  <!-- sparkle accent -->
  <path d="M168 30 l3.2 7.2 7.2 3.2 -7.2 3.2 -3.2 7.2 -3.2 -7.2 -7.2 -3.2 7.2 -3.2 z" fill="#F97316" opacity="0.92"/>
  <!-- speech dot -->
  <circle cx="338" cy="168" r="13" fill="#2B3A4E" opacity="0.85"/>
  <circle cx="334" cy="168" r="1.8" fill="#fff"/><circle cx="338" cy="168" r="1.8" fill="#fff"/><circle cx="342" cy="168" r="1.8" fill="#fff"/>
</svg>
